<svg class="menu_mobile-only menu__list__item__icon menu__list__item__icon_mail-dark" viewBox="0 0 78 60" xmlns="http://www.w3.org/2000/svg"><path d="M68.28 60c5.348 0 9.72-4.391 9.72-9.806V9.806C78 4.411 73.647 0 68.28 0H9.72C4.373 0 0 4.391 0 9.806v40.388C0 55.589 4.353 60 9.72 60h58.56zM9.934 13.646a2.423 2.423 0 0 1-.273-3.406 2.373 2.373 0 0 1 3.377-.276L39 32.215 64.98 9.984a2.39 2.39 0 0 1 3.377.275 2.44 2.44 0 0 1-.273 3.407L49.541 29.537 68.162 47.22c.957.906 1.015 2.442.098 3.407a2.361 2.361 0 0 1-1.737.768 2.408 2.408 0 0 1-1.64-.65L45.85 32.688l-5.309 4.549a2.414 2.414 0 0 1-1.542.57 2.414 2.414 0 0 1-1.542-.57l-5.31-4.55-19.03 18.058a2.408 2.408 0 0 1-1.64.65 2.33 2.33 0 0 1-1.738-.768c-.898-.965-.859-2.501.098-3.407l18.621-17.683-18.524-15.89z"/></svg>