<svg class="menu_mobile-only menu__list__item__icon menu__list__item__icon_portfolio" viewBox="0 0 104 63" xmlns="http://www.w3.org/2000/svg"><path d="M66.096 39.037V59.7c0 1.698-1.448 3.069-3.242 3.069H41.028c-1.794 0-3.242-1.371-3.242-3.07V39.038c0-1.698 1.448-3.07 3.242-3.07h21.826c1.794 0 3.242 1.372 3.242 3.07zm37.786 0h.01V59.7c0 1.698-1.447 3.069-3.24 3.069H78.813c-1.794 0-3.242-1.371-3.242-3.07V39.038c0-1.698 1.448-3.07 3.242-3.07h21.826c1.794 0 3.242 1.372 3.242 3.07zM28.31 3.069h.01v20.674c0 1.698-1.447 3.07-3.241 3.07H3.242C1.448 26.812 0 25.44 0 23.742V3.07C0 1.37 1.448 0 3.242 0h21.826c1.794 0 3.242 1.37 3.242 3.069zm37.786 0v20.674c0 1.698-1.448 3.07-3.242 3.07H41.028c-1.794 0-3.242-1.372-3.242-3.07V3.07c0-1.7 1.448-3.07 3.242-3.07h21.826c1.794 0 3.242 1.37 3.242 3.069zm37.786 0h.01v20.674c0 1.698-1.447 3.07-3.24 3.07H78.813c-1.794 0-3.242-1.372-3.242-3.07V3.07C75.572 1.37 77.02 0 78.814 0h21.826c1.794 0 3.242 1.37 3.242 3.069zM28.31 39.037h.01V59.7c0 1.698-1.447 3.069-3.241 3.069H3.242C1.448 62.77 0 61.399 0 59.7V39.038c0-1.698 1.448-3.07 3.242-3.07h21.826c1.794 0 3.242 1.372 3.242 3.07z"/></svg>