<svg width="175" height="175" viewBox="0 0 175 175" fill="none" xmlns="http://www.w3.org/2000/svg">
<rect width="175" height="175" fill="white"/>
<path fill-rule="evenodd" clip-rule="evenodd" d="M161 15H14V162H161V15ZM55.94 63.14L65.12 80H77.12L66.02 61.82C68.78 60.98 70.94 59.58 72.5 57.62C74.06 55.66 74.84 53.24 74.84 50.36C74.84 47.92 74.38 45.88 73.46 44.24C72.54 42.6 71.31 41.28 69.77 40.28C68.23 39.28 66.49 38.57 64.55 38.15C62.61 37.73 60.62 37.52 58.58 37.52H42.38V80H52.46V63.14H55.94ZM127.48 79.25C130.24 77.99 132.56 76.28 134.44 74.12L127.3 67.4C126.38 68.68 125.16 69.72 123.64 70.52C122.12 71.32 120.34 71.72 118.3 71.72C116.54 71.72 114.92 71.4 113.44 70.76C111.96 70.12 110.69 69.23 109.63 68.09C108.57 66.95 107.74 65.58 107.14 63.98C106.54 62.38 106.24 60.62 106.24 58.7C106.24 56.82 106.54 55.09 107.14 53.51C107.74 51.93 108.58 50.56 109.66 49.4C110.74 48.24 112.03 47.33 113.53 46.67C115.03 46.01 116.68 45.68 118.48 45.68C120.12 45.68 121.72 46 123.28 46.64C124.84 47.28 126.1 48.26 127.06 49.58L134.02 42.62C132.22 40.58 129.87 39.03 126.97 37.97C124.07 36.91 121.12 36.38 118.12 36.38C114.88 36.38 111.86 36.9 109.06 37.94C106.26 38.98 103.82 40.47 101.74 42.41C99.66 44.35 98.03 46.7 96.85 49.46C95.67 52.22 95.08 55.3 95.08 58.7C95.08 62.02 95.66 65.06 96.82 67.82C97.98 70.58 99.58 72.95 101.62 74.93C103.66 76.91 106.07 78.44 108.85 79.52C111.63 80.6 114.66 81.14 117.94 81.14C121.54 81.14 124.72 80.51 127.48 79.25ZM65.12 138L55.94 121.14H52.46V138H42.38V95.52H58.58C60.62 95.52 62.61 95.73 64.55 96.15C66.49 96.57 68.23 97.28 69.77 98.28C71.31 99.28 72.54 100.6 73.46 102.24C74.38 103.88 74.84 105.92 74.84 108.36C74.84 111.24 74.06 113.66 72.5 115.62C70.94 117.58 68.78 118.98 66.02 119.82L77.12 138H65.12ZM136.72 116.64C136.72 120.36 136.03 123.57 134.65 126.27C133.27 128.97 131.45 131.19 129.19 132.93C126.93 134.67 124.38 135.95 121.54 136.77C118.7 137.59 115.82 138 112.9 138H97.06V95.52H112.42C115.42 95.52 118.38 95.87 121.3 96.57C124.22 97.27 126.82 98.43 129.1 100.05C131.38 101.67 133.22 103.84 134.62 106.56C136.02 109.28 136.72 112.64 136.72 116.64Z" fill="#4A4A4A"/>
</svg>
