<svg width="14" height="15" viewBox="0 0 14 15" fill="none" xmlns="http://www.w3.org/2000/svg">
  <path
    d="M6.97764 3.6415e-06C6.94268 0.000166692 6.90742 0.00609765 6.87385 0.0178373L0.21372 2.39353C0.0724453 2.44375 -0.01603 2.58836 0.00242476 2.74065L1.05517 11.5855C1.06758 11.6902 1.12793 11.7824 1.21861 11.8326L6.83408 14.9605C6.88117 14.9869 6.93353 15 6.98572 15C7.03822 15 7.09119 14.9866 7.13859 14.9599L12.7827 11.7893C12.8724 11.7388 12.9334 11.6468 12.9455 11.5428L13.9976 2.69861C14.0161 2.54567 13.9267 2.39979 13.7838 2.35022L7.0808 0.0165634C7.04739 0.00514992 7.0126 -0.000159409 6.97764 3.6415e-06ZM7.00001 1.62987L11.1364 10.7607H9.72447L8.83952 8.80663H5.1605L4.27555 10.7607H2.8636L7.00001 1.62987ZM7.00001 4.72783L5.75275 7.49968H8.24727L7.00001 4.72783Z"
    fill="currentColor" />
</svg>