<svg width="14" height="12" viewBox="0 0 14 12" fill="none" xmlns="http://www.w3.org/2000/svg">
  <path
    d="M7 5.32473C6.36592 4.13559 4.63983 1.91988 3.0345 0.827489C1.49683 -0.219336 0.910583 -0.0382087 0.526167 0.129981C0.0810833 0.322921 0 0.982178 0 1.36918C0 1.75731 0.2205 4.54735 0.364 5.01366C0.839417 6.55268 2.52992 7.07244 4.08742 6.90594C4.16675 6.89469 4.24744 6.88419 4.3295 6.87444C4.249 6.88681 4.16831 6.89731 4.08742 6.90594C1.80542 7.23219 -0.221667 8.03376 2.43658 10.8874C5.36083 13.8068 6.44408 10.2613 7 8.46408C7.55592 10.2613 8.19583 13.6791 11.5109 10.8874C14 8.46408 12.1946 7.23219 9.91258 6.90594C9.83165 6.89725 9.75093 6.88675 9.6705 6.87444C9.75217 6.88419 9.83286 6.89469 9.91258 6.90594C11.4701 7.073 13.1606 6.55268 13.636 5.01366C13.7795 4.54791 14 1.75675 14 1.36975C14 0.981616 13.9189 0.322921 13.4738 0.128856C13.0894 -0.0387713 12.5032 -0.219898 10.9655 0.826364C9.36017 1.92044 7.63408 4.13615 7 5.32473Z"
    fill="currentColor" />
</svg>