<svg width="20" height="17" viewBox="0 0 20 17" fill="none" xmlns="http://www.w3.org/2000/svg">
  <path fill-rule="evenodd" clip-rule="evenodd"
    d="M4.15396 0C3.01302 0 2.16884 1.02566 2.20677 2.13834C2.24247 3.20714 2.19561 4.5913 1.85571 5.72034C1.51581 6.85236 0.940126 7.56787 0 7.6601V8.70286C0.940126 8.79435 1.51506 9.5106 1.85571 10.6426C2.19487 11.7717 2.24247 13.1558 2.20602 14.2246C2.16884 15.3373 3.01302 16.363 4.15396 16.363H15.8468C16.9885 16.363 17.8327 15.3373 17.7947 14.2246C17.7583 13.1558 17.8059 11.7717 18.145 10.6426C18.4857 9.5106 19.0599 8.79509 20 8.70286V7.6601C19.0591 7.56861 18.4857 6.85236 18.145 5.72034C17.8059 4.5913 17.7583 3.20714 17.7947 2.13834C17.8319 1.02566 16.9877 0 15.8468 0H4.15396ZM11.6773 7.51067V7.52332C12.8584 7.66017 13.6513 8.4984 13.6505 9.6148C13.6505 10.3534 13.3753 10.9662 12.8554 11.388C12.3363 11.8089 11.5806 12.0313 10.6702 12.0313H7.16634V3.51588H10.6524C11.4133 3.51588 12.0589 3.7167 12.5185 4.09751C12.9796 4.47906 13.2236 5.01607 13.2236 5.64976C13.2236 6.54675 12.546 7.36043 11.6773 7.51067ZM8.55421 7.12243H10.0447C11.2005 7.12243 11.8365 6.66352 11.8372 5.83198C11.8372 5.05697 11.301 4.63005 10.3281 4.63005H8.55421V7.12243ZM10.3162 8.16594H8.55421V10.9171H10.3943C11.5985 10.9171 12.2344 10.4389 12.2344 9.53299C12.2344 8.62559 11.5888 8.16594 10.3162 8.16594Z"
    fill="currentColor" />
</svg>