<svg width="12" height="12" viewBox="0 0 12 12" fill="none" xmlns="http://www.w3.org/2000/svg">
  <path
    d="M10.9613 6.62505C10.4909 6.5371 10.0521 6.49986 9.5735 6.49999C6.8975 6.49999 4.517 7.87099 3 9.99999M9.54528 2.47424C7.98028 4.30774 5.584 5.49999 2.955 5.49999C2.282 5.49999 1.67617 5.4436 1.04867 5.2996M7.32484 10.8226C7.45217 10.204 7.50033 9.75151 7.5 9.11999C7.5 5.96299 6.03572 3.27588 3.61872 1.60238M11 6C11 8.76142 8.76142 11 6 11C3.23858 11 1 8.76142 1 6C1 3.23858 3.23858 1 6 1C8.76142 1 11 3.23858 11 6Z"
    stroke="currentColor" stroke-width="1.3" stroke-linecap="round" stroke-linejoin="round" />
</svg>