<svg width="13" height="18" viewBox="0 0 13 18" fill="none" xmlns="http://www.w3.org/2000/svg">
  <path fill-rule="evenodd" clip-rule="evenodd"
    d="M3.95749 2.4151C3.54841 2.4151 3.15608 2.57761 2.86681 2.86687C2.57755 3.15614 2.41504 3.54847 2.41504 3.95755C2.41504 4.36664 2.57755 4.75897 2.86681 5.04823C3.15608 5.3375 3.54841 5.50001 3.95749 5.50001H5.49994V2.4151H3.95749ZM5.49994 12.5849H3.95749C3.54841 12.5849 3.15608 12.7474 2.86681 13.0367C2.57755 13.326 2.41504 13.7183 2.41504 14.1274C2.41504 14.5364 2.57755 14.9288 2.86681 15.218C3.15608 15.5073 3.54841 15.6698 3.95749 15.6698C4.36658 15.6698 4.7589 15.5073 5.04817 15.218C5.33744 14.9288 5.49994 14.5364 5.49994 14.1274V12.5849ZM1.49073 11.5849C1.47794 11.5973 1.46523 11.6098 1.4526 11.6225C0.788261 12.2868 0.415039 13.1878 0.415039 14.1274C0.415039 15.0669 0.788261 15.9679 1.4526 16.6323C2.11694 17.2966 3.01798 17.6698 3.95749 17.6698C4.89701 17.6698 5.79805 17.2966 6.46238 16.6323C7.12672 15.9679 7.49994 15.0669 7.49994 14.1274V12.2315C7.56132 12.2612 7.62362 12.2891 7.68676 12.3153C8.11655 12.4933 8.5772 12.5849 9.0424 12.5849C9.5076 12.5849 9.96824 12.4933 10.398 12.3153C10.8278 12.1372 11.2183 11.8763 11.5473 11.5474C11.8762 11.2184 12.1372 10.8279 12.3152 10.3981C12.4932 9.96831 12.5849 9.50766 12.5849 9.04246C12.5849 8.57726 12.4932 8.11661 12.3152 7.68682C12.1372 7.25703 11.8762 6.86651 11.5473 6.53757C11.5347 6.52495 11.522 6.51243 11.5092 6.50001C11.522 6.48759 11.5347 6.47507 11.5473 6.46245C11.8762 6.1335 12.1372 5.74298 12.3152 5.31319C12.4932 4.8834 12.5849 4.42276 12.5849 3.95755C12.5849 3.49235 12.4932 3.0317 12.3152 2.60191C12.1372 2.17213 11.8762 1.78161 11.5473 1.45266C11.2183 1.12371 10.8278 0.862778 10.398 0.684753C9.96824 0.506728 9.5076 0.4151 9.0424 0.4151H6.49994H3.95749C3.01797 0.4151 2.11694 0.788322 1.4526 1.45266C0.788261 2.117 0.415039 3.01804 0.415039 3.95755C0.415039 4.89707 0.788261 5.79811 1.4526 6.46245C1.46523 6.47507 1.47794 6.48759 1.49073 6.50001C1.47794 6.51242 1.46523 6.52494 1.4526 6.53757C0.788261 7.2019 0.415039 8.10294 0.415039 9.04246C0.415039 9.98198 0.788261 10.883 1.4526 11.5474C1.46523 11.56 1.47794 11.5725 1.49073 11.5849ZM3.95749 7.50001C3.54841 7.50001 3.15608 7.66251 2.86681 7.95178C2.57755 8.24105 2.41504 8.63338 2.41504 9.04246C2.41504 9.45154 2.57755 9.84387 2.86681 10.1331C3.15608 10.4224 3.54841 10.5849 3.95749 10.5849H5.49994V9.04246V7.50001H3.95749ZM7.49994 9.04246C7.49994 9.24502 7.53984 9.44559 7.61736 9.63273C7.69487 9.81987 7.80849 9.98991 7.95172 10.1331C8.09495 10.2764 8.26499 10.39 8.45213 10.4675C8.63927 10.545 8.83984 10.5849 9.0424 10.5849C9.24496 10.5849 9.44553 10.545 9.63267 10.4675C9.81981 10.39 9.98985 10.2764 10.1331 10.1331C10.2763 9.98991 10.3899 9.81987 10.4674 9.63273C10.545 9.44559 10.5849 9.24502 10.5849 9.04246C10.5849 8.8399 10.545 8.63933 10.4674 8.45219C10.3899 8.26505 10.2763 8.09501 10.1331 7.95178C9.98985 7.80855 9.81981 7.69493 9.63267 7.61742C9.44553 7.5399 9.24496 7.50001 9.0424 7.50001C8.83984 7.50001 8.63927 7.5399 8.45213 7.61742C8.26499 7.69493 8.09495 7.80855 7.95172 7.95178C7.80849 8.09501 7.69487 8.26505 7.61736 8.45219C7.53984 8.63933 7.49994 8.8399 7.49994 9.04246ZM9.0424 5.50001C9.24496 5.50001 9.44553 5.46011 9.63267 5.38259C9.81981 5.30508 9.98985 5.19146 10.1331 5.04823C10.2763 4.905 10.3899 4.73496 10.4674 4.54782C10.545 4.36068 10.5849 4.16011 10.5849 3.95755C10.5849 3.755 10.545 3.55442 10.4674 3.36728C10.3899 3.18014 10.2763 3.0101 10.1331 2.86687C9.98985 2.72364 9.81981 2.61003 9.63267 2.53251C9.44553 2.455 9.24496 2.4151 9.0424 2.4151H7.49994V5.50001H9.0424Z"
    fill="currentColor" />
</svg>