<svg xmlns="http://www.w3.org/2000/svg" width="14" height="15" viewBox="0 0 313 394" fill="none"><g clip-path="url(#a)"><path fill="currentColor" d="M1.488 216.057v-.124a1.513 1.513 0 0 0 0-.14c3.725-24.288 13.385-46.662 26.2-66.786a232.35 232.35 0 0 1 7.532-11.114c16.48-22.895 68.531-85.142 95.876-117.596C141.44 8.015 148.247 0 148.247 0a223.438 223.438 0 0 1 9.044 7.66l.101.092a251.18 251.18 0 0 1 52.254 69.524l.044.081a251.349 251.349 0 0 1 7.146 15.332 248.93 248.93 0 0 1 12.449 37.183 247.864 247.864 0 0 1 4.665 23.438 145.246 145.246 0 0 1 23.545-1.909 144.675 144.675 0 0 1 32.196 3.604 155.666 155.666 0 0 1 15.507 33.321A156.676 156.676 0 0 1 313 237.311c0 76.055-54.13 139.463-125.927 153.693A156.905 156.905 0 0 1 156.501 394c-2.027 0-4.043-.043-6.052-.113a159.341 159.341 0 0 1-15.608-1.376 155.854 155.854 0 0 1-34.927-9.071 149.36 149.36 0 0 1-8.855-3.765C37.327 354.871 0 300.451 0 237.311a159.16 159.16 0 0 1 1.488-21.254Zm205.526 140.829a129.174 129.174 0 0 0 41.216-27.827 129.398 129.398 0 0 0 27.791-41.261 129.038 129.038 0 0 0 10.177-50.508 129.038 129.038 0 0 0-10.177-50.514 116.637 116.637 0 0 0-3.487-7.563 119.936 119.936 0 0 0-14.974-.936 119.33 119.33 0 0 0-21.006 1.861c.152 3.502.228 7.036.228 10.581.095 65.955-25.881 129.267-72.254 176.115a128.117 128.117 0 0 0 42.486-9.948Zm-57.493-13.227a214.241 214.241 0 0 0 9.074-10.296 222.057 222.057 0 0 0 33.775-55.636 222.399 222.399 0 0 0 17.545-87.029v-2.437a117.979 117.979 0 0 0-35.699 24.563 117.253 117.253 0 0 0-31.798 58.008 118.951 118.951 0 0 0-2.73 25.439 117.797 117.797 0 0 0 9.794 47.388h.039ZM26.791 241.782a129.65 129.65 0 0 0 22.186 68.287 130.547 130.547 0 0 0 42.986 39.97l.17-.08a129.323 129.323 0 0 0 13.972 6.927 128.595 128.595 0 0 0 18.403 6.204c1.118.286 2.239.555 3.363.806.608.141 1.209.275 1.817.398-.238-.431-.467-.877-.694-1.318-.348-.671-.692-1.345-1.025-2.022a143.21 143.21 0 0 1-9.866-25.649 145.215 145.215 0 0 1-5.304-39.002c-.004-9.59.937-19.156 2.81-28.561 9.957-49.845 45.454-90.45 92.242-107.589a221.2 221.2 0 0 0-11.535-46.446 229.953 229.953 0 0 0-3.95-10.012 222.38 222.38 0 0 0-6.872-14.761 195.414 195.414 0 0 0-34.705-50.25l-.21.253a7970.435 7970.435 0 0 0-40.756 48.776 4257.33 4257.33 0 0 0-22.154 26.962c-13.181 16.198-24.507 30.464-30.628 38.937a195.067 195.067 0 0 0-2.567 3.652c-8.791 12.777-15.583 25.693-20.188 38.469a128.272 128.272 0 0 0-6.303 24.864v.108a117.239 117.239 0 0 0-1.203 21.077h.011Z"/></g><defs><clipPath id="a"><path fill="currentColor" d="M313 0H0v394h313z"/></clipPath></defs></svg>