<svg width="14" height="14" viewBox="0 0 14 14" fill="none" xmlns="http://www.w3.org/2000/svg">
  <path
    d="M13.6326 6.1143L7.8857 0.367357C7.64198 0.122453 7.32099 0 7 0C6.67901 0 6.35802 0.122453 6.1143 0.367357L4.97775 1.50391L6.38417 2.91033C6.85139 2.6357 7.46009 2.69514 7.86073 3.09579C8.26138 3.49643 8.31963 4.10513 8.04501 4.57116L9.42765 5.9538C9.89487 5.67918 10.5036 5.73862 10.9042 6.13927C11.3798 6.61481 11.3798 7.38519 10.9042 7.86073C10.4287 8.33628 9.65829 8.33628 9.18274 7.86073C8.7821 7.46009 8.72266 6.85139 8.99728 6.38417L7.61464 5.00153C7.51596 5.05978 7.41253 5.10258 7.30435 5.12993V8.86889C7.82863 9.00442 8.21739 9.47639 8.21739 10.0435C8.21739 10.7164 7.67289 11.2609 7 11.2609C6.32711 11.2609 5.78261 10.7164 5.78261 10.0435C5.78261 9.47639 6.17137 9.00442 6.69565 8.86889V5.12993C6.49236 5.07762 6.29857 4.97656 6.13927 4.81726C5.73862 4.41661 5.68037 3.80791 5.95499 3.34188L4.54738 1.93427L0.367357 6.1143C-0.122452 6.60292 -0.122452 7.39708 0.367357 7.8857L6.1143 13.6326C6.35802 13.8775 6.67901 14 7 14C7.32099 14 7.64198 13.8775 7.8857 13.6326L13.6326 7.8857C14.1225 7.39708 14.1225 6.60292 13.6326 6.1143Z"
    fill="currentColor" />
</svg>