<svg width="12" height="12" viewBox="0 0 12 12" fill="none" xmlns="http://www.w3.org/2000/svg">
  <path
    d="M6 0C5.21207 0 4.43185 0.159048 3.7039 0.468062C2.97595 0.777076 2.31451 1.23001 1.75736 1.80099C0.632141 2.95414 0 4.51816 0 6.14896C0 8.8668 1.722 11.1727 4.104 11.9905C4.404 12.0397 4.5 11.849 4.5 11.683V10.6439C2.838 11.0128 2.484 9.81989 2.484 9.81989C2.208 9.10661 1.818 8.91599 1.818 8.91599C1.272 8.53476 1.86 8.54706 1.86 8.54706C2.46 8.5901 2.778 9.1804 2.778 9.1804C3.3 10.115 4.182 9.83834 4.524 9.69076C4.578 9.29108 4.734 9.02053 4.902 8.8668C3.57 8.71308 2.172 8.18427 2.172 5.84151C2.172 5.15898 2.4 4.61172 2.79 4.17515C2.73 4.02142 2.52 3.38193 2.85 2.55182C2.85 2.55182 3.354 2.3858 4.5 3.17901C4.974 3.04374 5.49 2.9761 6 2.9761C6.51 2.9761 7.026 3.04374 7.5 3.17901C8.646 2.3858 9.15 2.55182 9.15 2.55182C9.48 3.38193 9.27 4.02142 9.21 4.17515C9.6 4.61172 9.828 5.15898 9.828 5.84151C9.828 8.19042 8.424 8.70693 7.086 8.86065C7.302 9.05127 7.5 9.42636 7.5 9.99821V11.683C7.5 11.849 7.596 12.0458 7.902 11.9905C10.284 11.1665 12 8.8668 12 6.14896C12 5.34147 11.8448 4.54188 11.5433 3.79586C11.2417 3.04983 10.7998 2.37197 10.2426 1.80099C9.68549 1.23001 9.02406 0.777076 8.2961 0.468062C7.56815 0.159048 6.78793 0 6 0Z"
    fill="currentColor" />
</svg>