<svg width="15" height="17" viewBox="0 0 15 17" fill="none" xmlns="http://www.w3.org/2000/svg">
  <path
    d="M14.9041 0.118409C14.8357 0.0427987 14.7372 0 14.6345 0H0.365491C0.262775 0 0.164338 0.0427987 0.0958606 0.118409C0.0259562 0.19402 -0.00828262 0.29531 0.00170378 0.398026L1.28709 14.7969C1.29992 14.9481 1.40549 15.0736 1.55101 15.1164L7.39871 16.7856C7.4301 16.7956 7.46433 16.7998 7.49857 16.7998C7.53281 16.7998 7.56562 16.7956 7.59844 16.7856L13.4504 15.1164C13.5959 15.0736 13.7001 14.9481 13.7143 14.7969L14.9983 0.398026C15.0083 0.29531 14.974 0.19402 14.9041 0.118409ZM11.8269 5.08303H4.95634L5.1204 6.94192H11.6614L11.1707 12.4358L7.49715 13.5457L7.46148 13.5343L3.83074 12.4344L3.63244 10.196H5.41143L5.48847 11.0648L7.51855 11.49L9.51153 11.0648L9.7241 8.71377H3.49977L3.01614 3.3069H11.9853L11.8269 5.08303Z"
    fill="currentColor" />
</svg>