<svg width="15" height="15" viewBox="0 0 15 15" fill="none" xmlns="http://www.w3.org/2000/svg">
  <path
    d="M14.0485 0H0.952846C0.426898 0 0 0.426898 0 0.952846V14.0472C0 14.5731 0.426898 15 0.952846 15H14.0472C14.5731 15 15 14.5731 15 14.0485V0.952846C15 0.426898 14.5731 0 14.0485 0ZM8.21429 11.4941C8.21429 12.9213 7.37723 13.5714 6.15513 13.5714C5.05022 13.5714 4.25363 12.8306 3.92857 12.1429L5.05162 11.4634C5.26786 11.8471 5.5971 12.1429 6.07143 12.1429C6.52483 12.1429 6.78571 11.9657 6.78571 11.2765V6.78571H8.21429V11.4941ZM11.3128 13.5714C10.0474 13.5714 9.32896 12.9339 8.92857 12.1429L10 11.4286C10.2916 11.9057 10.6097 12.3619 11.2821 12.3619C11.8471 12.3619 12.1429 12.0801 12.1429 11.6895C12.1429 11.2235 11.8359 11.0575 11.2151 10.7854L10.8747 10.639C9.89118 10.2204 9.23689 9.69587 9.23689 8.58538C9.23689 7.56417 10.0167 6.78571 11.2333 6.78571C12.0996 6.78571 12.7218 7.08705 13.171 7.87667L12.1108 8.55887C11.8764 8.13895 11.6253 7.97433 11.2333 7.97433C10.8343 7.97433 10.5818 8.22824 10.5818 8.55887C10.5818 8.96763 10.8343 9.13225 11.4188 9.38616L11.7592 9.53265C12.9185 10.0279 13.5714 10.5343 13.5714 11.6727C13.5714 12.899 12.6074 13.5714 11.3128 13.5714Z"
    fill="currentColor" />
</svg>