<svg width="14" height="14" viewBox="0 0 14 14" fill="none" xmlns="http://www.w3.org/2000/svg">
  <path
    d="M5.2409 9.625C5.2409 9.9148 5.00605 10.15 4.7159 10.15C4.42575 10.15 4.1909 9.9148 4.1909 9.625V4.725C4.1909 4.49645 4.33895 4.29415 4.55665 4.2245C4.7754 4.1552 5.01235 4.235 5.1443 4.42155L11.0162 12.718C12.8159 11.4482 14 9.35725 14 7C14 3.15 10.85 0 7 0C3.15 0 0 3.15 0 7C0 10.85 3.15 14 7 14C8.1172 14 9.1721 13.728 10.1115 13.2573L5.2409 6.3756V9.625ZM8.7409 4.375C8.7409 4.0852 8.97575 3.85 9.2659 3.85C9.55605 3.85 9.7909 4.0852 9.7909 4.375V9.219L8.7409 7.73955V4.375Z"
    fill="currentColor" />
</svg>