<svg width="15" height="16" viewBox="0 0 15 16" fill="none" xmlns="http://www.w3.org/2000/svg">
  <path fill-rule="evenodd" clip-rule="evenodd"
    d="M13.4416 3.34926C13.2312 3.21813 12.9849 3.12584 12.7175 3.06881C12.1827 2.95477 11.5462 2.96684 10.8342 3.08122C10.5552 3.12604 10.2617 3.19198 9.9613 3.26831C9.87871 2.97721 9.79025 2.69706 9.69177 2.43882C9.43503 1.76556 9.12862 1.209 8.76327 0.803763C8.39791 0.398526 7.95328 0.135794 7.46352 0.135794C6.97376 0.135794 6.52933 0.398271 6.16398 0.803509C5.79863 1.20875 5.49175 1.76535 5.23501 2.43861C5.14583 2.67247 5.06524 2.92529 4.98903 3.18626C4.74242 3.12869 4.49998 3.07789 4.26835 3.04259C3.5693 2.93605 2.94343 2.93008 2.41662 3.04882C1.8898 3.16755 1.44563 3.42437 1.20159 3.84705C0.957554 4.26973 0.957542 4.78227 1.11812 5.29787C1.27871 5.81347 1.5965 6.35305 2.03828 6.90517C2.19481 7.1008 2.37259 7.29821 2.55968 7.49582C2.30315 7.75251 2.06723 8.00911 1.86113 8.26247C1.40607 8.8219 1.07783 9.36626 0.909181 9.88647C0.74053 10.4067 0.734267 10.9251 0.980359 11.3513C1.22645 11.7775 1.67872 12.0317 2.21355 12.1457C2.74838 12.2598 3.38395 12.2479 4.09596 12.1335C4.37242 12.0891 4.66349 12.0244 4.96095 11.949C5.04474 12.246 5.13453 12.5317 5.23479 12.7946C5.49153 13.4679 5.79879 14.0242 6.16415 14.4295C6.5295 14.8347 6.97414 15.0974 7.4639 15.0974C7.95366 15.0974 8.39754 14.8346 8.7629 14.4294C9.12825 14.0242 9.43482 13.4681 9.69156 12.7948C9.80825 12.4888 9.91303 12.1552 10.0072 11.8036C10.2803 11.8694 10.5482 11.9268 10.8033 11.9657C11.5023 12.0722 12.1285 12.0776 12.6553 11.9589C13.1822 11.8402 13.626 11.5839 13.8701 11.1612C14.1141 10.7385 14.1144 10.2254 13.9538 9.70984C13.7933 9.19423 13.4752 8.65519 13.0334 8.10307C12.8849 7.9175 12.717 7.73026 12.541 7.54281C12.7302 7.34519 12.9107 7.14793 13.0696 6.9526C13.5247 6.39318 13.8532 5.84827 14.0219 5.32807C14.1905 4.80787 14.1959 4.28971 13.9498 3.86347C13.8268 3.65034 13.6521 3.4804 13.4416 3.34926ZM13.0929 3.89492C13.2255 3.97636 13.3219 4.07475 13.3874 4.18824C13.5184 4.41522 13.5362 4.71998 13.4038 5.12826C13.2715 5.53653 12.9852 6.02614 12.5649 6.54291C12.421 6.71984 12.2561 6.90026 12.0822 7.08219C11.5973 6.62157 11.0384 6.16478 10.4149 5.726C10.3488 5.07804 10.2501 4.46554 10.1215 3.89847C10.4044 3.82633 10.6794 3.76495 10.9373 3.72353C11.595 3.61787 12.1617 3.61478 12.5814 3.70428C12.7913 3.74904 12.9604 3.81347 13.0929 3.89492ZM7.86803 0.88048C8.00568 0.954909 8.14636 1.0692 8.29048 1.22905C8.5787 1.54873 8.86018 2.04138 9.09774 2.66435C9.18891 2.90343 9.27108 3.16688 9.34871 3.44154C8.78904 3.61526 8.20438 3.83807 7.60562 4.10766C6.91604 3.78977 6.24315 3.53609 5.60428 3.34863C5.67457 3.10842 5.74779 2.87653 5.82865 2.6645C6.06621 2.04153 6.34753 1.54899 6.63575 1.2293C6.92398 0.909612 7.19895 0.771639 7.46346 0.771639C7.59571 0.771639 7.73038 0.806051 7.86803 0.88048ZM9.50831 4.07278C9.59166 4.44629 9.66178 4.84284 9.71834 5.25862C9.50502 5.12331 9.28688 4.99016 9.06216 4.86042C8.83298 4.7281 8.60429 4.60351 8.37601 4.48435C8.76455 4.32525 9.143 4.1875 9.50831 4.07278ZM8.74119 5.41637C9.11555 5.6325 9.47154 5.85855 9.81144 6.08948C9.85314 6.58123 9.87695 7.09112 9.87695 7.61627C9.87695 8.0777 9.85826 8.52764 9.82582 8.96389C9.45988 9.21364 9.07384 9.45771 8.66871 9.69161C8.31209 9.89751 7.95653 10.0833 7.60396 10.2569C7.18372 10.0589 6.75755 9.83774 6.33077 9.59134C5.89372 9.33901 5.48039 9.07403 5.09086 8.80235C5.06567 8.41613 5.04939 8.02155 5.04939 7.61634C5.04939 7.1496 5.06826 6.6944 5.10143 6.25347C5.46852 6.00274 5.85525 5.75733 6.26179 5.52261C6.7142 5.26141 7.16575 5.02883 7.61015 4.82C7.98424 5.00051 8.36252 5.19774 8.74119 5.41637ZM10.4803 6.56743C10.9015 6.88605 11.2821 7.21066 11.6242 7.53395C11.2839 7.85174 10.9063 8.17095 10.4907 8.48533C10.5036 8.19971 10.5128 7.91099 10.5128 7.61633C10.5128 7.25924 10.4992 6.91093 10.4803 6.56743ZM6.84271 4.47298C6.54195 4.62575 6.24054 4.78555 5.93755 4.96048C5.6791 5.1097 5.42952 5.26361 5.1857 5.41963C5.25021 4.90585 5.33743 4.42209 5.44203 3.97112C5.89018 4.10384 6.35901 4.27007 6.84271 4.47298ZM12.0844 7.99466C12.2455 8.16637 12.3984 8.3368 12.5323 8.50413C12.9395 9.0131 13.2151 9.49644 13.341 9.90086C13.467 10.3053 13.447 10.6101 13.3141 10.8402C13.1812 11.0704 12.9273 11.2401 12.5141 11.3332C12.1008 11.4263 11.5445 11.4294 10.9001 11.3312C10.6646 11.2953 10.4143 11.2415 10.1576 11.1792C10.2806 10.6047 10.3725 9.98423 10.4324 9.3313C11.0476 8.89714 11.6017 8.44744 12.0844 7.99466ZM4.82601 3.80759C4.67652 4.44547 4.56461 5.14282 4.4958 5.88445C3.95701 6.26492 3.46294 6.65698 3.02462 7.0531C2.84916 6.86811 2.68346 6.68418 2.53938 6.50412C2.13212 5.99515 1.85659 5.5118 1.73064 5.10739C1.60468 4.70297 1.62466 4.39818 1.75754 4.16803C1.89042 3.93787 2.14439 3.76818 2.5576 3.67505C2.97081 3.58192 3.52716 3.57886 4.17157 3.67708C4.38017 3.70887 4.60055 3.75511 4.82601 3.80759ZM8.26593 6.23953C7.50902 5.80253 6.53184 6.06436 6.09483 6.82128C5.65783 7.57819 5.91966 8.55537 6.67658 8.99238C7.4335 9.42938 8.41067 9.16755 8.84768 8.41063C9.28469 7.65372 9.02285 6.67654 8.26593 6.23953ZM4.43658 6.73204C4.42324 7.0226 4.41409 7.31662 4.41409 7.61659C4.41409 7.85129 4.41895 8.08255 4.42716 8.31163C4.08706 8.04692 3.77311 7.77913 3.48747 7.51174C3.77799 7.2509 4.09618 6.98974 4.43658 6.73204ZM9.74334 9.79589C9.69047 10.2207 9.62315 10.6274 9.54249 11.0105C9.16711 10.8961 8.77726 10.7573 8.377 10.5942C8.58206 10.4855 8.78763 10.3729 8.99349 10.2541C9.25136 10.1052 9.50004 9.95152 9.74334 9.79589ZM3.0203 7.9546C3.45037 8.36027 3.93804 8.76271 4.47655 9.15238C4.5396 9.92595 4.651 10.6527 4.80104 11.3183C4.52094 11.3896 4.24864 11.451 3.99316 11.4921C3.33545 11.5977 2.76851 11.6 2.34875 11.5105C1.92899 11.421 1.67385 11.2535 1.5428 11.0265C1.41175 10.7995 1.39452 10.4951 1.52688 10.0868C1.65925 9.67854 1.94465 9.18916 2.36501 8.67239C2.55571 8.43796 2.77749 8.19708 3.0203 7.9546ZM9.39308 11.6368C9.30412 11.9704 9.20601 12.2841 9.09769 12.5681C8.86013 13.1911 8.57881 13.6836 8.29059 14.0033C8.00236 14.323 7.72816 14.4621 7.46365 14.4621C7.19913 14.4621 6.92409 14.3233 6.63586 14.0036C6.34764 13.6839 6.06616 13.1912 5.8286 12.5683C5.73574 12.3248 5.65233 12.0562 5.57354 11.7758C6.22872 11.5728 6.91804 11.305 7.62396 10.971C8.2319 11.2437 8.82544 11.4663 9.39308 11.6368ZM5.16228 9.62356C5.43604 9.80215 5.71641 9.9779 6.0098 10.1473C6.29348 10.3111 6.57621 10.4613 6.85822 10.6049C6.36052 10.8208 5.87723 10.9993 5.41479 11.1443C5.30972 10.6708 5.22356 10.1627 5.16228 9.62356Z"
    fill="currentColor" />
</svg>