<svg width="15" height="14" viewBox="0 0 15 14" fill="none" xmlns="http://www.w3.org/2000/svg">
  <path fill-rule="evenodd" clip-rule="evenodd"
    d="M10.6143 0.00106513C10.3602 -0.00767043 10.0942 0.0376236 9.82748 0.126017C9.29406 0.302804 8.73509 0.647319 8.16145 1.12433C7.93664 1.31127 7.70979 1.52496 7.48217 1.75169C7.25958 1.53072 7.03739 1.32276 6.81755 1.13995C6.24437 0.663321 5.68691 0.318673 5.1547 0.142287C4.62249 -0.0341001 4.09293 -0.0395657 3.65801 0.217128C3.22308 0.473821 2.963 0.945028 2.84632 1.50439C2.72964 2.06376 2.7425 2.72988 2.85969 3.47564C2.9004 3.73467 2.95845 4.00642 3.02457 4.28327C2.77606 4.36026 2.53472 4.44121 2.31092 4.53057C1.63553 4.80023 1.07668 5.12285 0.669722 5.50675C0.262768 5.89066 0 6.35659 0 6.86821C0 7.37983 0.262768 7.84511 0.669722 8.22901C1.07668 8.61291 1.63553 8.93618 2.31092 9.20585C2.55023 9.30139 2.80931 9.38743 3.07678 9.46877C2.98057 9.83624 2.90262 10.1928 2.8495 10.5309C2.73222 11.2772 2.71983 11.9434 2.83677 12.5041C2.95371 13.0647 3.21393 13.5386 3.65101 13.7965C4.08808 14.0545 4.62 14.0482 5.15343 13.8714C5.68685 13.6946 6.24518 13.3507 6.81882 12.8737C7.04156 12.6885 7.26687 12.4772 7.49236 12.2528C7.71904 12.4785 7.94525 12.6908 8.16909 12.877C8.74226 13.3536 9.30036 13.6976 9.83257 13.874C10.3648 14.0504 10.8943 14.0558 11.3293 13.7991C11.7642 13.5424 12.0236 13.0712 12.1403 12.5119C12.257 11.9525 12.2441 11.287 12.1269 10.5413C12.0737 10.2023 11.9957 9.84455 11.899 9.47593C12.1753 9.39261 12.4426 9.30426 12.6891 9.20585C13.3645 8.93618 13.9233 8.61291 14.3303 8.22901C14.7372 7.84511 15 7.37983 15 6.86821C15 6.35659 14.7372 5.89066 14.3303 5.50675C13.9233 5.12285 13.3645 4.80023 12.6891 4.53057C12.4621 4.43993 12.217 4.35792 11.9646 4.28001C12.0313 4.00147 12.0904 3.72777 12.1314 3.46718C12.2487 2.72083 12.2611 2.05396 12.1441 1.49333C12.0272 0.932695 11.7663 0.459471 11.3293 0.201509C11.1107 0.0725276 10.8685 0.00980069 10.6143 0.00106513ZM10.5844 0.679189C10.7439 0.683647 10.8799 0.722441 10.9963 0.791125C11.2291 0.928492 11.4011 1.19584 11.4929 1.63585C11.5847 2.07586 11.5815 2.67035 11.4731 3.3598C11.436 3.59585 11.3822 3.84602 11.321 4.10235C10.6543 3.93832 9.92367 3.8166 9.14502 3.74506C8.75413 3.19149 8.35249 2.68716 7.94754 2.23978C8.16174 2.02605 8.37454 1.82614 8.58225 1.65342C9.11215 1.21278 9.61382 0.912954 10.0325 0.774204C10.2418 0.704829 10.4249 0.674731 10.5844 0.679189ZM4.39903 0.681141C4.55943 0.676564 4.74296 0.706582 4.95289 0.776157C5.37275 0.915307 5.87529 1.215 6.40565 1.65603C6.60919 1.82528 6.81724 2.02138 7.02699 2.23002C6.61905 2.68106 6.21409 3.18976 5.8206 3.74832C5.04525 3.82116 4.31764 3.94354 3.65419 4.1082C3.59345 3.8533 3.53958 3.60441 3.50267 3.36956C3.39424 2.67952 3.39153 2.08494 3.48358 1.64366C3.57562 1.20238 3.74906 0.933015 3.98396 0.794379C4.1014 0.725061 4.23864 0.685719 4.39903 0.681141ZM7.49236 2.71942C7.75788 3.0148 8.02346 3.33804 8.28686 3.68584C8.02805 3.67481 7.76607 3.66827 7.5 3.66827C7.22863 3.66827 6.96167 3.67502 6.69786 3.68649C6.96132 3.33842 7.22677 3.01502 7.49236 2.71942ZM7.5 4.34119C7.94326 4.34119 8.37529 4.35981 8.79552 4.3913C9.08467 4.81585 9.36725 5.26626 9.63649 5.74299C9.87307 6.16188 10.0872 6.58012 10.282 6.99316C10.0851 7.41168 9.86742 7.83558 9.62758 8.26025C9.41645 8.63407 9.19597 8.98912 8.97186 9.33145C8.49718 9.37201 8.00532 9.39458 7.5 9.39458C6.98252 9.39458 6.47961 9.37067 5.9944 9.3282C5.77402 8.99079 5.55726 8.64112 5.3495 8.27326C5.11021 7.84956 4.89358 7.42644 4.69697 7.00878C4.8944 6.58876 5.112 6.16329 5.35269 5.73713C5.62052 5.2629 5.90227 4.8151 6.18984 4.3926C6.6146 4.3604 7.05164 4.34119 7.5 4.34119ZM9.63458 4.4746C10.1719 4.54313 10.6764 4.63829 11.1459 4.75249C11.0066 5.21936 10.835 5.70701 10.6271 6.21026C10.4921 5.94422 10.3522 5.67728 10.2012 5.40979C10.0181 5.08562 9.82741 4.77657 9.63458 4.4746ZM5.3304 4.47981C5.14165 4.77613 4.95592 5.07917 4.77655 5.39677C4.62353 5.6677 4.48081 5.93823 4.34428 6.20766C4.13815 5.70743 3.96758 5.22255 3.82926 4.75834C4.29527 4.64394 4.79683 4.54912 5.3304 4.47981ZM11.7908 4.9295C12.0219 5.00097 12.245 5.07555 12.4497 5.15728C13.0723 5.40587 13.5648 5.70024 13.884 6.00135C14.2032 6.30247 14.3417 6.58963 14.3417 6.86821C14.3417 7.14678 14.2032 7.43395 13.884 7.73506C13.5648 8.03618 13.0723 8.33054 12.4497 8.57914C12.2222 8.66996 11.9723 8.75231 11.7125 8.83034C11.5272 8.24431 11.2906 7.63292 11.009 7.00878C11.3328 6.29221 11.5943 5.59355 11.7908 4.9295ZM3.19837 4.93276C3.39266 5.59017 3.65081 6.28189 3.96995 6.99121C3.68656 7.61899 3.44881 8.23385 3.26267 8.82318C3.012 8.74721 2.77056 8.66708 2.55029 8.57914C1.92768 8.33054 1.43519 8.03618 1.11599 7.73506C0.796795 7.43395 0.658263 7.14678 0.658263 6.86821C0.658263 6.58963 0.796795 6.30247 1.11599 6.00135C1.43519 5.70024 1.92768 5.40587 2.55029 5.15728C2.75183 5.07681 2.97124 5.00329 3.19837 4.93276ZM7.5 5.33755C6.60378 5.33755 5.87026 6.0874 5.87026 7.00357C5.87026 7.91974 6.60378 8.6696 7.5 8.6696C8.39622 8.6696 9.12974 7.91974 9.12974 7.00357C9.12974 6.0874 8.39622 5.33755 7.5 5.33755ZM4.35192 7.79168C4.48905 8.06245 4.63166 8.33415 4.78546 8.60647C4.90579 8.81953 5.02868 9.02692 5.15343 9.23058C4.71569 9.16853 4.29959 9.08997 3.90884 8.99694C4.0331 8.60789 4.18176 8.20404 4.35192 7.79168ZM10.6353 7.79168C10.8062 8.20502 10.9549 8.60951 11.0797 8.99955C10.6877 9.09246 10.2703 9.17075 9.8313 9.23253C9.95768 9.02638 10.0825 8.8164 10.2044 8.60061C10.357 8.3303 10.4991 8.06047 10.6353 7.79168ZM3.72103 9.64383C4.31094 9.78669 4.95034 9.89643 5.62834 9.96792C6.08094 10.6371 6.55246 11.2384 7.02699 11.7641C6.8148 11.9756 6.60448 12.1741 6.39865 12.3453C5.86875 12.7859 5.36645 13.0851 4.9478 13.2238C4.52915 13.3626 4.2167 13.3443 3.98396 13.2069C3.75121 13.0695 3.57981 12.8022 3.48803 12.3622C3.39625 11.9222 3.39879 11.3283 3.50713 10.6389C3.55628 10.3261 3.62974 9.99121 3.72103 9.64383ZM11.2681 9.64643C11.3602 9.99593 11.4339 10.3321 11.4833 10.6467C11.5918 11.3367 11.5945 11.9313 11.5024 12.3726C11.4104 12.8139 11.2382 13.0839 11.0033 13.2225C10.7684 13.3612 10.453 13.3792 10.0331 13.2401C9.61325 13.1009 9.1107 12.8013 8.58034 12.3602C8.37303 12.1878 8.16126 11.9877 7.94754 11.7745C8.42526 11.2468 8.9001 10.6424 9.35574 9.96922C10.0355 9.89821 10.6766 9.78912 11.2681 9.64643ZM6.47886 10.0363C6.81354 10.0549 7.15262 10.0675 7.5 10.0675C7.83589 10.0675 8.16398 10.0557 8.48803 10.0382C8.15677 10.4951 7.81912 10.9104 7.48281 11.2845C7.14671 10.9096 6.80969 10.4935 6.47886 10.0363Z"
    fill="currentColor" />
</svg>