<svg width="20" height="15" viewBox="0 0 20 15" fill="none" xmlns="http://www.w3.org/2000/svg">
  <path
    d="M17.2117 8.62181C16.5129 8.62541 15.9073 8.79351 15.3998 9.04365C15.2142 8.67304 15.0262 8.34685 14.9946 8.10431C14.9578 7.82135 14.915 7.65245 14.9594 7.31505C15.0038 6.97766 15.199 6.50018 15.1958 6.46456C15.193 6.42894 15.1522 6.25724 14.749 6.25404C14.3458 6.25124 14.001 6.33168 13.9602 6.43814C13.9194 6.54461 13.8418 6.78434 13.7938 7.03449C13.723 7.4003 12.9891 8.70506 12.5719 9.38745C12.4355 9.1209 12.3195 8.88636 12.2955 8.70066C12.2587 8.41769 12.2159 8.24879 12.2603 7.9114C12.3047 7.574 12.4999 7.09653 12.4967 7.0609C12.4939 7.02528 12.4531 6.85358 12.0499 6.85038C11.6467 6.84758 11.3019 6.92803 11.2611 7.03449C11.2203 7.14095 11.1771 7.3899 11.0948 7.63084C11.012 7.87178 10.036 10.0478 9.78041 10.6118C9.65001 10.8991 9.53682 11.1301 9.45682 11.2878L9.45642 11.287C9.45642 11.287 9.45162 11.2974 9.44282 11.3154C9.37442 11.4494 9.33362 11.5239 9.33362 11.5239C9.33362 11.5239 9.33403 11.5251 9.33483 11.5267C9.28043 11.6252 9.22243 11.7168 9.19363 11.7168C9.17363 11.7168 9.13323 11.4543 9.20243 11.0944C9.34762 10.3396 9.69641 9.16212 9.69321 9.1217C9.69161 9.10089 9.75801 8.89597 9.46522 8.78831C9.18083 8.68425 9.07924 8.85795 9.05324 8.85835C9.02804 8.85875 9.00924 8.91958 9.00924 8.91958C9.00924 8.91958 9.32643 7.59561 8.40446 7.59561C7.82849 7.59561 7.03012 8.22638 6.63654 8.79791C6.38855 8.93319 5.85737 9.22336 5.2938 9.53314C5.0774 9.65201 4.85661 9.77368 4.64702 9.88934C4.63262 9.87374 4.61862 9.85773 4.60382 9.84212C3.48627 8.64902 1.42076 7.80534 1.50836 6.20161C1.54035 5.61847 1.74275 4.08318 5.47779 2.2209C8.53726 0.695215 10.9868 1.11506 11.4099 2.0456C12.0147 3.37477 10.1008 5.8454 6.92373 6.20161C5.71298 6.33728 5.0758 5.86781 4.91701 5.69291C4.75022 5.5088 4.72542 5.5004 4.66302 5.53522C4.56143 5.59165 4.62582 5.75415 4.66302 5.851C4.75782 6.09795 5.147 6.5362 5.81097 6.75393C6.39495 6.94564 7.81609 7.0509 9.53522 6.38571C11.4603 5.64048 12.9635 3.56768 12.5223 1.83508C12.0731 0.0728543 9.15323 -0.506282 6.38975 0.475888C4.74502 1.06063 2.96469 1.97836 1.68435 3.17625C0.162012 4.60108 -0.0803778 5.841 0.019618 6.3589C0.375203 8.19996 2.9107 9.39866 3.92625 10.2872C3.87626 10.3148 3.82906 10.3408 3.78626 10.3644C3.27708 10.6166 1.34436 11.6288 0.860783 12.6982C0.312406 13.9113 0.947979 14.7818 1.36916 14.899C2.67311 15.2621 4.01145 14.6089 4.73062 13.5355C5.44979 12.4624 5.36179 11.0652 5.03181 10.4273C5.02781 10.4193 5.02301 10.4116 5.01901 10.4036C5.1506 10.3256 5.2846 10.2468 5.41739 10.1687C5.67658 10.0166 5.93097 9.87454 6.15176 9.75407C6.02816 10.0927 5.93777 10.4985 5.89057 11.0848C5.83537 11.7736 6.11736 12.6638 6.48655 13.014C6.64894 13.168 6.84453 13.1716 6.96852 13.1716C7.39811 13.1716 7.5941 12.8142 7.80969 12.3912C8.07448 11.8725 8.30927 11.2689 8.30927 11.2689C8.30927 11.2689 8.01448 12.8999 8.81765 12.8999C9.11003 12.8999 9.40442 12.5201 9.53562 12.3268C9.53602 12.3288 9.53602 12.33 9.53602 12.33C9.53602 12.33 9.54362 12.3176 9.55842 12.2919C9.58881 12.2455 9.60601 12.2159 9.60601 12.2159C9.60601 12.2159 9.60681 12.2127 9.60761 12.2075C9.72521 12.0034 9.986 11.5375 10.3772 10.7691C10.8824 9.77648 11.3671 8.53336 11.3671 8.53336C11.3671 8.53336 11.4123 8.83753 11.5599 9.33983C11.6467 9.6356 11.8315 9.96259 11.9771 10.276C11.8599 10.4389 11.7879 10.5321 11.7879 10.5321C11.7879 10.5321 11.7887 10.5337 11.7899 10.5369C11.6963 10.6614 11.5911 10.7955 11.4811 10.9267C11.0824 11.4022 10.6072 11.9449 10.5436 12.1018C10.4688 12.2863 10.4864 12.4224 10.6312 12.5313C10.7368 12.6109 10.9252 12.6233 11.122 12.6101C11.4803 12.5861 11.7327 12.4969 11.8571 12.4428C12.0511 12.3744 12.2771 12.2663 12.4891 12.1102C12.8803 11.8225 13.1163 11.4106 13.0939 10.8651C13.0815 10.5645 12.9855 10.2668 12.8643 9.9854C12.8999 9.93417 12.9355 9.88294 12.9711 9.83051C13.5878 8.92799 14.0662 7.93661 14.0662 7.93661C14.0662 7.93661 14.1114 8.24079 14.259 8.74308C14.3338 8.99763 14.4814 9.27499 14.6138 9.54715C14.0338 10.0186 13.6742 10.5665 13.549 10.9259C13.3183 11.5907 13.499 11.8921 13.8382 11.9605C13.9918 11.9918 14.209 11.9213 14.3722 11.8521C14.5754 11.7848 14.8194 11.6724 15.0474 11.5047C15.4386 11.2169 15.815 10.8139 15.7922 10.2684C15.7818 10.0202 15.7146 9.77368 15.6234 9.53674C16.1149 9.33182 16.7517 9.21776 17.5625 9.31261C19.302 9.51593 19.6432 10.6026 19.578 11.0572C19.5128 11.5123 19.148 11.762 19.026 11.8377C18.904 11.9133 18.8668 11.9393 18.8772 11.9954C18.892 12.077 18.9484 12.0738 19.0524 12.0562C19.1956 12.0322 19.9656 11.6864 19.9988 10.8467C20.0404 9.78288 19.0196 8.6122 17.2117 8.62181ZM3.80506 13.1444C3.22908 13.7732 2.42392 14.0109 2.07873 13.8108C1.70595 13.5947 1.85354 12.6686 2.56071 12.0014C2.99149 11.5947 3.54787 11.2201 3.91705 10.9892C4.00105 10.9388 4.12425 10.8643 4.27424 10.7743C4.29904 10.7602 4.31304 10.7522 4.31304 10.7522L4.31264 10.7514C4.34144 10.7342 4.37143 10.7162 4.40183 10.6978C4.65902 11.648 4.40983 12.4844 3.80506 13.1444ZM8.00208 10.2892C7.80129 10.7787 7.38131 12.031 7.12572 11.9637C6.90613 11.9061 6.77253 10.954 7.08172 10.0174C7.23731 9.54595 7.5697 8.98242 7.76529 8.76349C8.07968 8.41169 8.42606 8.29642 8.51006 8.4393C8.61766 8.62101 8.12808 9.9822 8.00208 10.2892ZM11.4699 11.9449C11.3847 11.9894 11.3067 12.0174 11.2707 11.9958C11.2439 11.9798 11.3059 11.9213 11.3059 11.9213C11.3059 11.9213 11.7395 11.4543 11.9107 11.2417C12.0099 11.1181 12.1255 10.9712 12.2507 10.8071C12.2519 10.8235 12.2523 10.8399 12.2523 10.8559C12.2507 11.4154 11.7107 11.7928 11.4699 11.9449ZM14.1414 11.3354C14.0778 11.2902 14.0886 11.1441 14.297 10.6894C14.379 10.5109 14.5658 10.2099 14.891 9.92256C14.9286 10.0406 14.9518 10.1539 14.951 10.2596C14.9466 10.9636 14.4446 11.2265 14.1414 11.3354Z"
    fill="currentColor" />
</svg>