<svg width="14" height="15" viewBox="0 0 524 320" fill="none" xmlns="http://www.w3.org/2000/svg">
<path d="M0 261.727C17.4667 191.909 61.1333 157 131 157C195.937 157 225.669 187.158 251.355 213.213L251.395 213.254C267.147 229.228 281.385 243.666 301.3 248.636C336.233 257.364 366.8 244.273 393 209.364C375.533 279.182 331.867 314.091 262 314.091C197.063 314.091 167.331 283.933 141.645 257.878L141.635 257.868C125.871 241.881 111.627 227.438 91.7 222.455C56.7667 213.727 26.2 226.818 0 261.727Z" fill="currentColor"/>
<path d="M131 104.727C148.467 34.9091 192.133 0 262 0C326.937 0 356.669 30.1576 382.355 56.2133L382.395 56.2535C398.147 72.2278 412.385 86.666 432.3 91.6363C467.233 100.364 497.8 87.2727 524 52.3636C506.533 122.182 462.867 157.091 393 157.091C328.063 157.091 298.331 126.933 272.645 100.878L272.635 100.868C256.871 84.8814 242.627 70.4378 222.7 65.4545C187.767 56.7273 157.2 69.8182 131 104.727Z" fill="currentColor"/>
</svg>
