<svg width="15" height="14" viewBox="0 0 15 14" fill="none" xmlns="http://www.w3.org/2000/svg">
  <path
    d="M0 0V14H15V0H0ZM8.88833 7.35078H7.12333V12.4444H5.70083V7.35078H3.9725V6.22222H8.88833V7.35078ZM9.165 12.1536V10.7917C9.165 10.7917 9.96167 11.3524 10.9183 11.3524C11.875 11.3524 11.8375 10.7691 11.8375 10.689C11.8375 9.842 9.12833 9.842 9.12833 7.966C9.12833 5.41411 13.0758 6.42133 13.0758 6.42133L13.0267 7.63389C13.0267 7.63389 12.365 7.22167 11.6167 7.22167C10.8692 7.22167 10.5992 7.55378 10.5992 7.90844C10.5992 8.82389 13.3333 8.73211 13.3333 10.5747C13.3333 13.412 9.165 12.1536 9.165 12.1536Z"
    fill="currentColor" />
</svg>