<svg width="14" height="15" viewBox="0 0 410 404" fill="none" xmlns="http://www.w3.org/2000/svg">
<path d="M204.343 82.6044L205.223 77.6824L204.343 82.6044C206.106 82.9194 207.91 82.9164 209.672 82.5953L209.673 82.5953L390.016 49.7248C394.176 48.9666 397.34 53.3939 395.277 57.0845L211.279 386.105C209.38 389.5 204.5 389.522 202.571 386.141C202.571 386.141 202.571 386.141 202.571 386.141L14.9251 57.0795C12.8247 53.3961 15.9744 48.9346 20.1483 49.6806C20.1483 49.6806 20.1483 49.6806 20.1483 49.6806L204.343 82.6044Z" stroke="currentColor" stroke-width="10"/>
<path d="M292.965 1.5744L156.801 28.2552C154.563 28.6937 152.906 30.5903 152.771 32.8664L144.395 174.33C144.198 177.662 147.258 180.248 150.51 179.498L188.42 170.749C191.967 169.931 195.172 173.055 194.443 176.622L183.18 231.775C182.422 235.487 185.907 238.661 189.532 237.56L212.947 230.446C216.577 229.344 220.065 232.527 219.297 236.242L201.398 322.875C200.278 328.294 207.486 331.249 210.492 326.603L212.5 323.5L323.454 102.072C325.312 98.3645 322.108 94.137 318.036 94.9228L279.014 102.454C275.347 103.161 272.227 99.746 273.262 96.1583L298.731 7.86689C299.767 4.27314 296.636 0.855181 292.965 1.5744Z" fill="currentColor"/>
</svg>
