<svg width="14" height="14" viewBox="0 0 14 14" fill="none" xmlns="http://www.w3.org/2000/svg">
  <path
    d="M7 0C3.13997 0 0 3.13997 0 7C0 10.86 3.13997 14 7 14C10.86 14 14 10.86 14 7C14 3.13997 10.86 0 7 0ZM7 0.328125C10.6823 0.328125 13.6719 3.31771 13.6719 7C13.6719 10.6823 10.6823 13.6719 7 13.6719C3.31771 13.6719 0.328125 10.6823 0.328125 7C0.328125 3.31771 3.31771 0.328125 7 0.328125ZM7 1.0026C4.90137 1.0026 3.06022 2.06901 1.98698 3.70052C2.12826 3.70508 2.25586 3.70052 2.36979 3.70052C2.9987 3.70052 3.97396 3.6276 3.97396 3.6276C4.29753 3.60937 4.33398 4.08105 4.01042 4.11979C4.01042 4.11979 3.68001 4.17448 3.31771 4.19271L5.50521 10.6823L6.81771 6.74479L5.88802 4.19271C5.56445 4.17448 5.25 4.11979 5.25 4.11979C4.92643 4.10156 4.96289 3.60937 5.28646 3.6276C5.28646 3.6276 6.28223 3.70052 6.8724 3.70052C7.5013 3.70052 8.47656 3.6276 8.47656 3.6276C8.80013 3.60937 8.83659 4.08105 8.51302 4.11979C8.51302 4.11979 8.18034 4.17448 7.82031 4.19271L9.98958 10.6458L10.5911 8.64062C10.8942 7.86133 11.0469 7.20508 11.0469 6.6901C11.0469 5.94727 10.7848 5.44824 10.5547 5.04948C10.2516 4.55501 9.97135 4.12207 9.97135 3.6276C9.97135 3.07617 10.3838 2.57031 10.974 2.57031C11.0013 2.57031 11.0195 2.57031 11.0469 2.57031C9.97819 1.59049 8.56315 1.0026 7 1.0026ZM12.2682 4.11979C12.2956 4.3112 12.3047 4.51855 12.3047 4.73958C12.3047 5.34798 12.1908 6.03385 11.849 6.89062L10.026 12.1953C11.8125 11.154 12.9974 9.21484 12.9974 7C12.9974 5.95638 12.7376 4.97428 12.2682 4.11979ZM1.51302 4.55729C1.18034 5.30241 1.0026 6.12956 1.0026 7C1.0026 9.37663 2.37207 11.4229 4.375 12.3958L1.51302 4.55729ZM7.10937 7.52865L5.30469 12.7604C5.84245 12.9176 6.40983 12.9974 7 12.9974C7.69954 12.9974 8.36263 12.888 8.98698 12.6693C8.97103 12.6442 8.96191 12.6077 8.95052 12.5781L7.10937 7.52865Z"
    fill="currentColor" />
</svg>