<svg xmlns="http://www.w3.org/2000/svg" width="68" height="68"><path d="M0 0h68v68H0V0zm23.5 30H29l-5.1-8.6c1.3-.4 2.3-1 3-1.9.7-1 1-2.1 1-3.5 0-1.1-.2-2.1-.6-2.8-.4-.8-1-1.4-1.7-1.9s-1.5-.8-2.4-1c-.9-.2-1.8-.3-2.7-.3H13v20h4.6v-7.9h1.6l4.3 7.9zM55 26.9l-3.3-3c-.4.5-.9 1-1.6 1.4-.7.3-1.5.5-2.5.5-.8 0-1.5-.2-2.2-.4-.7-.3-1.3-.7-1.7-1.2-.5-.5-.9-1.2-1.2-1.9-.3-.7-.4-1.5-.4-2.3 0-.9.1-1.6.4-2.3.3-.8.7-1.4 1.2-1.9s1.1-.9 1.7-1.2c.7-.3 1.5-.4 2.3-.4.8 0 1.5.1 2.2.4.7.3 1.3.7 1.7 1.3l3.2-3.1c-.8-.9-1.9-1.6-3.2-2.1-1.3-.5-2.7-.7-4.1-.7-1.4 0-2.8.2-4.1.7-1.3.5-2.4 1.1-3.4 2-.9.9-1.7 1.9-2.2 3.1-.5 1.3-.8 2.7-.8 4.2s.3 2.8.8 4c.5 1.3 1.3 2.3 2.2 3.2.9.9 2 1.6 3.3 2.1 1.3.5 2.7.7 4.2.7 1.6 0 3.1-.3 4.3-.8 1.3-.6 2.3-1.4 3.2-2.3zM23.5 57H29l-5.1-8.6c1.3-.4 2.3-1 3-1.9.7-1 1-2.1 1-3.5 0-1.1-.2-2.1-.6-2.8-.4-.8-1-1.4-1.7-1.9s-1.5-.8-2.4-1c-.9-.2-1.8-.3-2.7-.3H13v20h4.6v-7.9h1.6l4.3 7.9zM58 46.9c0-1.8-.3-3.4-1-4.7-.7-1.3-1.6-2.3-2.7-3.1-1-.7-2.3-1.3-3.7-1.6-1.4-.3-2.8-.5-4.2-.5H39v20h7.6c1.4 0 2.8-.2 4.1-.6 1.4-.4 2.6-1 3.7-1.8s1.9-1.9 2.6-3.1c.7-1.3 1-2.8 1-4.6z" fill="#FFF"/></svg>