<?xml version="1.0" encoding="UTF-8"?>
<svg width="68px" height="68px" viewBox="0 0 68 68" version="1.1" xmlns="http://www.w3.org/2000/svg" xmlns:xlink="http://www.w3.org/1999/xlink">
    <!-- Generator: Sketch 47.1 (45422) - http://www.bohemiancoding.com/sketch -->
    <title>Combined Shape</title>
    <desc>Created with Sketch.</desc>
    <defs></defs>
    <g id="Home" stroke="none" stroke-width="1" fill="none" fill-rule="evenodd">
        <g id="Mobile" transform="translate(-36.000000, -36.000000)" fill="#FFFFFF">
            <path d="M36,36 L104,36 L104,104 L36,104 L36,36 Z M59.4732297,66 L65,66 L59.8877375,57.440678 C61.158901,57.0451958 62.1537097,56.3860686 62.8721934,55.4632768 C63.5906772,54.540485 63.9499136,53.4011367 63.9499136,52.0451977 C63.9499136,50.8964161 63.7380562,49.9359737 63.3143351,49.1638418 C62.8906139,48.3917099 62.3241256,47.7702472 61.6148532,47.299435 C60.9055808,46.8286229 60.1042071,46.4943513 59.2107081,46.2966102 C58.3172091,46.0988691 57.4006955,46 56.4611399,46 L49,46 L49,66 L53.642487,66 L53.642487,58.0621469 L55.2452504,58.0621469 L59.4732297,66 Z M91,62.8632708 L87.7347561,59.8605898 C87.3140223,60.4325319 86.756101,60.8972279 86.0609756,61.2546917 C85.3658502,61.6121555 84.5518339,61.7908847 83.6189024,61.7908847 C82.8140204,61.7908847 82.0731741,61.6479013 81.3963415,61.3619303 C80.7195088,61.0759592 80.1387219,60.6782867 79.6539634,60.1689008 C79.1692049,59.6595149 78.7896355,59.0473673 78.5152439,58.3324397 C78.2408523,57.6175121 78.1036585,56.8311035 78.1036585,55.9731903 C78.1036585,55.1331504 78.2408523,54.3601465 78.5152439,53.6541555 C78.7896355,52.9481645 79.173778,52.3360169 79.6676829,51.8176944 C80.1615878,51.2993718 80.751521,50.8927629 81.4375,50.5978552 C82.123479,50.3029476 82.8780447,50.155496 83.7012195,50.155496 C84.4512233,50.155496 85.1829233,50.2984794 85.8963415,50.5844504 C86.6097597,50.8704214 87.1859734,51.308308 87.625,51.8981233 L90.8079268,48.7882038 C89.984752,47.876671 88.9100676,47.1840953 87.5838415,46.7104558 C86.2576153,46.2368162 84.9085434,46 83.5365854,46 C82.0548706,46 80.6737869,46.232348 79.3932927,46.6970509 C78.1127985,47.1617539 76.996956,47.8275202 76.0457317,48.69437 C75.0945074,49.5612197 74.3490881,50.6112539 73.8094512,51.844504 C73.2698144,53.0777542 73,54.4539692 73,55.9731903 C73,57.4566651 73.2652413,58.8150072 73.7957317,60.0482574 C74.3262222,61.2815075 75.0579222,62.3404782 75.9908537,63.2252011 C76.9237852,64.109924 78.0259083,64.7935633 79.2972561,65.2761394 C80.5686039,65.7587155 81.9542608,66 83.4542683,66 C85.100618,66 86.5548717,65.7185015 87.8170732,65.155496 C89.0792746,64.5924905 90.1402396,63.8284231 91,62.8632708 Z M59.4732297,93 L65,93 L59.8877375,84.440678 C61.158901,84.0451958 62.1537097,83.3860686 62.8721934,82.4632768 C63.5906772,81.540485 63.9499136,80.4011367 63.9499136,79.0451977 C63.9499136,77.8964161 63.7380562,76.9359737 63.3143351,76.1638418 C62.8906139,75.3917099 62.3241256,74.7702472 61.6148532,74.299435 C60.9055808,73.8286229 60.1042071,73.4943513 59.2107081,73.2966102 C58.3172091,73.0988691 57.4006955,73 56.4611399,73 L49,73 L49,93 L53.642487,93 L53.642487,85.0621469 L55.2452504,85.0621469 L59.4732297,93 Z M94,82.9435028 C94,81.0602542 93.6646529,79.4783492 92.9939486,78.1977401 C92.3232443,76.9171311 91.4417604,75.895484 90.3494705,75.1327684 C89.2571806,74.3700527 88.0116056,73.8239188 86.612708,73.4943503 C85.2138105,73.1647818 83.7957712,73 82.3585477,73 L75,73 L75,93 L82.5885023,93 C83.9873998,93 85.3671137,92.8069699 86.7276853,92.420904 C88.0882569,92.034838 89.3098786,91.4322075 90.392587,90.6129944 C91.4752954,89.7937812 92.3471979,88.7485939 93.0083207,87.4774011 C93.6694435,86.2062083 94,84.694924 94,82.9435028 Z" id="Combined-Shape"></path>
        </g>
    </g>
</svg>