<svg class="logo__img" width="68" height="68" xmlns="http://www.w3.org/2000/svg"><path d="M0 0h68v68H0V0zm23.5 30H29l-5.1-8.6c1.3-.4 2.3-1 3-1.9.7-1 1-2.1 1-3.5a5.2 5.2 0 0 0-2.3-4.7c-.7-.5-1.5-.8-2.4-1l-2.7-.3H13v20h4.6v-7.9h1.6l4.3 7.9zM55 26.9l-3.3-3c-.4.5-.9 1-1.6 1.4a6.2 6.2 0 0 1-4.7.1c-.7-.3-1.3-.7-1.7-1.2a5.9 5.9 0 0 1-1.6-4.2c0-.9.1-1.6.4-2.3.3-.8.7-1.4 1.2-1.9s1.1-.9 1.7-1.2c.7-.3 1.5-.4 2.3-.4.8 0 1.5.1 2.2.4.7.3 1.3.7 1.7 1.3l3.2-3.1a8.1 8.1 0 0 0-3.2-2.1c-1.3-.5-2.7-.7-4.1-.7a11.4 11.4 0 0 0-7.5 2.7c-.9.9-1.7 1.9-2.2 3.1-.5 1.3-.8 2.7-.8 4.2a10.2 10.2 0 0 0 3 7.2c.9.9 2 1.6 3.3 2.1 1.3.5 2.7.7 4.2.7 1.6 0 3.1-.3 4.3-.8a11 11 0 0 0 3.2-2.3zM23.5 57H29l-5.1-8.6c1.3-.4 2.3-1 3-1.9.7-1 1-2.1 1-3.5a5.2 5.2 0 0 0-2.3-4.7c-.7-.5-1.5-.8-2.4-1l-2.7-.3H13v20h4.6v-7.9h1.6l4.3 7.9zM58 46.9c0-1.8-.3-3.4-1-4.7a9 9 0 0 0-6.4-4.7 20 20 0 0 0-4.2-.5H39v20h7.6a14 14 0 0 0 7.8-2.4 9.8 9.8 0 0 0 2.6-3.1c.7-1.3 1-2.8 1-4.6z" fill="#4A4A4A"/></svg>