<svg class="main-text__social__link__icon" xmlns="http://www.w3.org/2000/svg" viewBox="0 0 92 92"><path d="M61.896 52.548c-3.59 0-6.502 4.026-6.502 8.996 0 4.971 2.912 8.999 6.502 8.999 3.588 0 6.498-4.028 6.498-8.999.001-4.97-2.91-8.996-6.498-8.996zm22.631-23.416c.74-1.826.777-12.201-3.17-22.132 0 0-9.057.993-22.76 10.396-2.872-.793-7.736-1.19-12.597-1.19s-9.723.396-12.598 1.189C19.699 7.993 10.645 7 10.645 7c-3.948 9.931-3.913 20.306-3.172 22.132C2.834 34.169 0 40.218 0 48.483c0 35.932 29.809 36.508 37.334 36.508 1.703 0 5.088.004 8.666.009 3.578-.005 6.965-.009 8.666-.009 7.525 0 37.334-.576 37.334-36.508 0-8.265-2.834-14.314-7.473-19.351zM46.141 80.574h-.281c-18.859 0-33.545-2.252-33.545-20.58 0-4.389 1.549-8.465 5.229-11.847 6.141-5.636 16.527-2.651 28.316-2.651l.141-.003.141.003c11.789 0 22.178-2.984 28.316 2.651 3.68 3.382 5.229 7.458 5.229 11.847-.001 18.328-14.687 20.58-33.546 20.58zM30.104 52.548c-3.588 0-6.498 4.026-6.498 8.996 0 4.971 2.91 8.999 6.498 8.999 3.592 0 6.502-4.028 6.502-8.999-.001-4.97-2.911-8.996-6.502-8.996z"/></svg>