<svg class="menu_mobile-only menu__list__item__icon menu__list__item__icon_quill" viewBox="0 0 71 78" xmlns="http://www.w3.org/2000/svg"><path d="M69.386 0C36.581 0 9.598 25.237 6.738 57.31c5.451-7.687 12.128-15.084 20.465-23.588a1.615 1.615 0 0 1 2.304 2.26 382.092 382.092 0 0 0-3.812 3.946c-.732.765-1.449 1.527-2.152 2.275-.13.14-.258.278-.387.42C12.854 53.653 5.489 63.255.142 75.18a1.616 1.616 0 0 0 2.946 1.323c1.904-4.244 4.115-8.181 6.6-12.012a62.885 62.885 0 0 0 53.809-33.067c.267-.5.254-1.104-.036-1.594a1.626 1.626 0 0 0-1.388-.784h-5.977l10.718-6.126c.34-.193.6-.506.726-.874C69.838 15.366 71 8.49 71 1.614 71 .723 70.277 0 69.386 0z"/></svg>