<svg class="menu_mobile-only menu__list__item__icon menu__list__item__icon_user" viewBox="0 0 62 83" xmlns="http://www.w3.org/2000/svg"><path d="M61.965 70.978c.02 1.227.03 1.44.035 1.33l-.001 1.49S57.435 83 31 83C4.566 83 .003 73.799.003 73.799c0-1.07-.002-1.684-.003-2.016.005.177.018.097.047-1.428.35-18.68 3.007-24.065 21.966-27.487 0 0 2.699 3.439 8.988 3.439s8.987-3.439 8.987-3.439c19.168 3.46 21.673 8.926 21.977 28.11zM30.551 40.132c-8.933 0-16.174-8.984-16.174-20.066C14.377 8.984 16.755 0 30.55 0s16.174 8.984 16.174 20.066c0 11.082-7.242 20.066-16.174 20.066z"/></svg>